# xmcd CD database file
#
# Track frame offsets:
#	150
#	12757
#	28492
#	40277
#	51269
#	66069
#	78099
#	92302
#	105369
#	123123
#	143532
#
# Disc length: 2113 seconds
#
# Revision: 1
# Processed by: cddbd v1.5.2PL0 Copyright (c) Steve Scherf et al.
# Submitted via: CDex 1.51
#
DISCID=7c083f0b
DTITLE=Moot Davis - Already Moved On
DYEAR=2007
DGENRE=Country
TTITLE0=Toggle Switch
TTITLE1=Talkin' 'bout Lonely
TTITLE2=The Man, The Myth
TTITLE3=It Ain't Right
TTITLE4=Already Moved On
TTITLE5=Go Down Alone
TTITLE6=Used To Be You
TTITLE7=Foreclosures and Repossessions
TTITLE8=Way Down Town
TTITLE9=Deeper In Your Love
TTITLE10=I'm The Only Hell (My Momma Ever Raised)
EXTD=YEAR: 2007
EXTT0=
EXTT1=
EXTT2=
EXTT3=
EXTT4=
EXTT5=
EXTT6=
EXTT7=
EXTT8=
EXTT9=
EXTT10=
PLAYORDER=
